<svg width="24" height="24" viewBox="0 0 24 24" fill="none" xmlns="http://www.w3.org/2000/svg">
<g id="vuesax/bold/link">
<g id="link">
<g id="Group 2">
<path id="Vector" d="M8.64012 15.3555C8.35021 15.0656 8.35021 14.5848 8.64012 14.2949L10.7614 12.1736L8.10979 9.52191C7.72089 9.133 7.08449 9.133 6.69558 9.52191L5.11873 11.0988C2.89135 13.3261 2.77821 17.088 5.08338 19.2234C6.13697 20.1922 7.4734 20.6801 8.8169 20.6801C10.224 20.673 11.6312 20.1427 12.706 19.0679L14.4738 17.3001C14.8627 16.9112 14.8627 16.2748 14.4738 15.8859L11.8221 13.2342L9.70078 15.3555C9.41087 15.6455 8.93004 15.6455 8.64012 15.3555Z" fill="#4894FE"/>
<path id="Vector_2" d="M15.1804 3.31349C13.7733 3.32057 12.3661 3.85089 11.2913 4.9257L9.52357 6.69346C9.13467 7.08237 9.13467 7.71877 9.52357 8.10768L12.1752 10.7593L14.2965 8.63801C14.5865 8.34809 15.0673 8.34809 15.3572 8.63801C15.6471 8.92792 15.6471 9.40875 15.3572 9.69867L13.2359 11.82L15.8875 14.4716C16.2764 14.8605 16.9128 14.8605 17.3017 14.4716L18.8786 12.8948C21.106 10.6674 21.2191 6.9056 18.9069 4.7772C17.8604 3.8014 16.5169 3.32057 15.1804 3.31349Z" fill="#4894FE"/>
<path id="Vector_3" d="M12.1753 10.7593L10.761 12.1735L11.8217 13.2342L13.2359 11.82L12.1753 10.7593Z" fill="#4894FE"/>
</g>
</g>
</g>
</svg>
