<svg width="24" height="24" viewBox="0 0 24 24" fill="none" xmlns="http://www.w3.org/2000/svg">
<g id="vuesax/bold/sun">
<g id="sun">
<path id="Vector" d="M10.0001 3.75H11.2501V8.5C11.2501 8.91 11.5901 9.25 12.0001 9.25C12.4101 9.25 12.7501 8.91 12.7501 8.5V3.75H14.0001C14.4101 3.75 14.7501 3.41 14.7501 3C14.7501 2.59 14.4101 2.25 14.0001 2.25H10.0001C9.59008 2.25 9.25008 2.59 9.25008 3C9.25008 3.41 9.59008 3.75 10.0001 3.75Z" fill="#4894FE"/>
<path id="Vector_2" d="M14.0001 20.25H12.7501V15.5C12.7501 15.09 12.4101 14.75 12.0001 14.75C11.5901 14.75 11.2501 15.09 11.2501 15.5V20.25H10.0001C9.59008 20.25 9.25008 20.59 9.25008 21C9.25008 21.41 9.59008 21.75 10.0001 21.75H14.0001C14.4101 21.75 14.7501 21.41 14.7501 21C14.7501 20.59 14.4101 20.25 14.0001 20.25Z" fill="#4894FE"/>
<path id="Vector_3" d="M2.82997 9.88C2.94997 9.95 3.07997 9.98 3.19997 9.98C3.45997 9.98 3.70997 9.85 3.84997 9.6L4.47997 8.52L8.59997 10.9C8.70997 10.97 8.83997 11 8.96997 11C9.22997 11 9.47997 10.87 9.61997 10.62C9.82997 10.27 9.69997 9.81 9.34997 9.6L5.22997 7.22L5.84997 6.14C6.05997 5.78 5.92997 5.32 5.57997 5.12C5.21997 4.91 4.75997 5.03 4.55997 5.39L2.55997 8.85C2.34997 9.22 2.46997 9.67 2.82997 9.88Z" fill="#4894FE"/>
<path id="Vector_4" d="M21.1701 14.12C20.8101 13.91 20.3501 14.03 20.1501 14.39L19.5201 15.47L15.4001 13.1C15.0401 12.89 14.5801 13.02 14.3801 13.37C14.1701 13.73 14.3001 14.19 14.6501 14.39L18.7601 16.77L18.1401 17.85C17.9301 18.21 18.0601 18.67 18.4101 18.87C18.5301 18.94 18.6601 18.97 18.7801 18.97C19.0401 18.97 19.2901 18.84 19.4301 18.59L21.4301 15.13C21.6501 14.78 21.5301 14.33 21.1701 14.12Z" fill="#4894FE"/>
<path id="Vector_5" d="M18.77 7.22001L14.65 9.60001C14.29 9.81001 14.17 10.27 14.38 10.62C14.52 10.86 14.77 11 15.03 11C15.16 11 15.29 10.97 15.4 10.9L19.51 8.52001L20.14 9.60001C20.28 9.84001 20.53 9.98001 20.79 9.98001C20.92 9.98001 21.05 9.95001 21.16 9.88001C21.52 9.67001 21.64 9.21001 21.43 8.86001L19.43 5.40001C19.22 5.04001 18.76 4.92001 18.41 5.13001C18.05 5.34001 17.93 5.80001 18.14 6.15001L18.77 7.22001Z" fill="#4894FE"/>
<path id="Vector_6" d="M5.22997 16.78L9.33997 14.4C9.69997 14.19 9.81997 13.73 9.60997 13.38C9.39997 13.02 8.93997 12.9 8.58997 13.11L4.47997 15.49L3.84997 14.41C3.63997 14.05 3.17997 13.93 2.82997 14.14C2.46997 14.35 2.34997 14.81 2.55997 15.16L4.55997 18.62C4.69997 18.86 4.94997 19 5.20997 19C5.33997 19 5.46997 18.97 5.57997 18.9C5.93997 18.69 6.05997 18.23 5.84997 17.88L5.22997 16.78Z" fill="#4894FE"/>
<path id="Vector_7" d="M15.5001 12C15.5001 12.64 15.3301 13.23 15.0301 13.75C14.4201 14.8 13.2901 15.5 12.0001 15.5C10.7101 15.5 9.58008 14.8 8.97008 13.75C8.67008 13.23 8.50008 12.64 8.50008 12C8.50008 11.36 8.67008 10.77 8.97008 10.25C9.58008 9.2 10.7101 8.5 12.0001 8.5C13.2901 8.5 14.4201 9.2 15.0301 10.25C15.3301 10.77 15.5001 11.36 15.5001 12Z" fill="#4894FE"/>
</g>
</g>
</svg>
